<?xml version="1.0" standalone="no"?>
<!DOCTYPE svg PUBLIC "-//W3C//DTD SVG 20010904//EN"
 "http://www.w3.org/TR/2001/REC-SVG-20010904/DTD/svg10.dtd">
<svg version="1.0" xmlns="http://www.w3.org/2000/svg"
 width="500.000000pt" height="500.000000pt" viewBox="0 0 500.000000 500.000000"
 preserveAspectRatio="xMidYMid meet">
<metadata>
Created by potrace 1.14, written by Peter Selinger 2001-2017
</metadata>
<g transform="translate(0.000000,500.000000) scale(0.100000,-0.100000)"
fill="#000000" stroke="none">
<path d="M590 4990 c-128 -20 -266 -95 -375 -204 -91 -92 -143 -175 -183 -291
l-27 -80 0 -1915 0 -1915 27 -80 c40 -117 92 -200 183 -290 91 -91 175 -143
290 -183 l80 -27 1915 0 1915 0 80 27 c115 40 199 92 290 183 91 90 143 173
183 290 l27 80 0 1915 0 1915 -27 80 c-40 116 -92 199 -183 291 -84 84 -160
133 -281 181 l-69 28 -1900 1 c-1045 1 -1920 -2 -1945 -6z m3524 -1026 c9 -8
16 -23 16 -32 0 -9 -587 -602 -1305 -1317 -718 -715 -1306 -1303 -1305 -1307
0 -5 207 -8 461 -8 l461 0 741 740 c408 407 749 740 758 740 10 0 25 -7 33
-16 14 -14 16 -106 16 -864 0 -758 -2 -850 -16 -864 -14 -14 -168 -16 -1548
-16 -1178 0 -1535 3 -1544 12 -7 7 -12 20 -12 29 0 10 235 251 532 546 293
290 883 878 1313 1305 l780 778 -470 0 -470 0 -740 -740 c-407 -407 -748 -740
-757 -740 -9 0 -24 7 -32 16 -14 14 -16 107 -16 874 0 808 1 860 18 869 11 7
525 10 1544 11 1375 0 1528 -2 1542 -16z"/>
</g>
</svg>
